<mxfile host="app.diagrams.net" modified="2024-06-13T22:27:24.132Z" agent="Mozilla/5.0 (Windows NT 10.0; Win64; x64) AppleWebKit/537.36 (KHTML, like Gecko) Chrome/123.0.0.0 Safari/537.36 OPR/109.0.0.0 (Edition std-1)" version="24.5.4" etag="e4vNjwlD3dQv0TkGDf3N" type="github">
  <diagram name="Page-1" id="azW8qwalbve-ZhRqHOWa">
    <mxGraphModel>
      <root>
        <mxCell id="0" />
        <mxCell id="1" parent="0" />
      </root>
    </mxGraphModel>
  </diagram>
</mxfile>
